<svg xmlns="http://www.w3.org/2000/svg" viewBox="0 0 32 32" fill="none">
  <!-- Tooth shape -->
  <path d="M11 4C7.5 4 4 6.5 4 10.5C4 13 5 15 5.5 17L7 28C7.2 29.1 8 30 9 30C10.5 30 11 28 11.5 26C12 24 12.5 22 13 20H19C19.5 22 20 24 20.5 26C21 28 21.5 30 23 30C24 30 24.8 29.1 25 28L26.5 17C27 15 28 13 28 10.5C28 6.5 24.5 4 21 4C19.5 4 18 4.5 16 4.5C14 4.5 12.5 4 11 4Z" fill="#2B5F5F"/>
  <!-- Highlight line -->
  <path d="M12 8C10.5 8.5 9 10 8.5 12" stroke="#B8944A" stroke-width="1.5" stroke-linecap="round"/>
</svg>
